<svg width="191" height="51" viewBox="0 0 191 51" fill="none" xmlns="http://www.w3.org/2000/svg">
<path d="M11.88 40.7422C14.36 40.7422 16.28 40.5422 17.76 40.1422C19.2 39.7422 19.92 39.1422 19.92 38.4222L19.36 30.3022C22.6 26.8222 23.76 24.2222 23.76 21.9422C23.76 18.5822 21.92 16.4622 18.88 16.4622C17.08 16.4622 15.56 17.1022 14.32 18.3822L14.48 15.8222C14.56 14.7422 13.84 14.1422 12.56 13.9422V11.7022H14.2V10.7422H12.56V9.26221H11.2V10.7422H9.56V11.7022H11.2V13.9422C9.92 14.1422 9.2 14.7422 9.28 15.7422L9.44 18.3822C8.16 17.1022 6.64 16.4622 4.88 16.4622C1.84 16.4622 0 18.5822 0 21.9422C0 24.3822 1.44 27.1822 4.4 30.3022L3.84 38.4222C3.84 39.1422 4.56 39.7022 6 40.1022C7.44 40.5022 9.4 40.7422 11.88 40.7422ZM11.88 22.5022C11.48 21.4622 11.12 20.6622 10.76 20.0622V16.2622C10.76 15.3822 11.12 14.9422 11.88 14.9422C12.6 14.9422 13 15.3022 13 16.2622V20.0622C12.6 20.6622 12.2 21.5022 11.88 22.5022ZM5.76 29.5022C3.48 27.1422 1.8 24.1822 1.8 22.1422C1.8 19.6222 2.96 18.1422 4.96 18.1422C8.36 18.1422 11.04 22.9822 11.04 27.6222V28.9022C9.56 28.9022 7.76 29.1022 5.76 29.5022ZM18 29.5022C16.28 29.1822 14 28.9022 12.72 28.9022V27.4622C12.72 23.0622 15.36 18.1422 18.8 18.1422C20.88 18.1422 21.96 19.7422 21.96 22.1422C21.96 24.1822 20.36 27.0622 18 29.5022ZM6 33.1822L6.2 30.8622C7.92 30.4222 9.8 30.1822 11.88 30.1822C13.92 30.1822 15.8 30.4222 17.56 30.8622L17.76 33.1822C16.88 32.8622 14.08 32.5022 11.88 32.5022C9.52 32.5022 6.8 32.8622 6 33.1822ZM5.8 36.6622L5.92 34.4622C7.4 34.0222 9.76 33.6622 11.88 33.6622C14 33.6622 16 33.9422 17.84 34.4622L17.96 36.6622C16.52 36.1822 14.52 35.9422 11.88 35.9422C9.24 35.9422 7.2 36.1822 5.8 36.6622ZM11.88 39.5822C7.68 39.5822 5.56 39.1822 5.56 38.3422C5.56 37.9822 6.12 37.6622 7.24 37.4222C8.36 37.1822 9.88 37.1022 11.88 37.1022C13.88 37.1022 15.44 37.2222 16.56 37.4222C17.64 37.6222 18.2 37.9822 18.2 38.3422C18.2 39.1822 16.08 39.5822 11.88 39.5822Z" fill="black"/>
<path fill-rule="evenodd" clip-rule="evenodd" d="M41.4669 12.5586C42.1278 12.2374 42.9055 12.1387 43.7242 12.1387C44.7341 12.1387 46.0546 12.2 47.3592 12.3877C48.6291 12.5705 50.0358 12.8931 51.1185 13.4946C51.3633 13.6306 51.5742 13.6889 51.9617 13.7959C52.0363 13.8165 52.1174 13.8389 52.2065 13.864C52.7347 14.0127 53.4212 14.236 54.1283 14.8017C54.7063 15.2641 55.04 15.4067 55.2921 15.4067C56.1206 15.4067 56.7921 16.0783 56.7921 16.9067C56.7921 17.7352 56.1206 18.4067 55.2921 18.4067C53.93 18.4067 52.8868 17.6504 52.2542 17.1443C52.0149 16.9529 51.7863 16.8623 51.3932 16.7516C51.3435 16.7376 51.288 16.7227 51.2275 16.7065C50.8399 16.6023 50.249 16.4434 49.6616 16.1171C49.0652 15.7857 48.0964 15.5248 46.9318 15.3571C45.802 15.1945 44.6291 15.1387 43.7242 15.1387C43.1824 15.1387 42.9217 15.2022 42.8169 15.2407C42.7903 15.3404 42.7622 15.5414 42.7601 15.9416C42.759 16.1596 42.7648 16.3984 42.7717 16.6833C42.7785 16.9609 42.7861 17.2742 42.7861 17.607V23.9098C42.7861 28.3252 44.2241 31.8994 48.1596 33.1103C50.1883 33.7345 52.2542 33.7698 54.1198 33.2555C54.1371 33.2439 54.1619 33.2264 54.1944 33.2017C54.3119 33.1121 54.4701 32.9725 54.6572 32.7835C55.0309 32.406 55.4464 31.9058 55.7936 31.3961C56.0832 30.9711 56.278 30.6083 56.3808 30.3483C56.0903 29.9147 56.0347 29.3415 56.2848 28.8414C56.6553 28.1004 57.5563 27.8 58.2973 28.1705C58.9124 28.4781 59.2779 29.0185 59.4041 29.6049C59.5146 30.1181 59.4331 30.6059 59.334 30.9665C59.1336 31.6952 58.7047 32.4515 58.2729 33.0853C57.8254 33.7421 57.2942 34.3838 56.7894 34.8939C56.5373 35.1486 56.2733 35.3892 56.0131 35.5875C55.7857 35.7609 55.4375 35.9995 55.0299 36.1159C52.5515 36.824 49.8597 36.7722 47.2774 35.9776C41.4453 34.1831 39.7861 28.8237 39.7861 23.9098V17.607C39.7861 17.3158 39.7795 17.0371 39.7726 16.7563L39.7721 16.7346C39.7656 16.4678 39.7588 16.1899 39.7602 15.9261C39.7628 15.4118 39.7925 14.772 40.0108 14.1731C40.2591 13.4919 40.7298 12.9168 41.4669 12.5586Z" fill="black"/>
<path fill-rule="evenodd" clip-rule="evenodd" d="M72.979 20.9135C73.0312 20.9567 73.1214 21.0221 73.2628 21.1068C73.6122 21.3162 74.1035 21.5438 74.6897 21.787C75.0753 21.9469 75.4583 22.0963 75.8416 22.2458C76.0445 22.3249 76.2475 22.4041 76.451 22.4849C76.9863 22.6974 77.5748 22.9397 77.9955 23.1872C79.4839 24.0627 80.0364 25.4073 80.1968 26.6904C80.3106 27.6005 80.2352 28.6282 80.1744 29.4559C80.1585 29.6737 80.1435 29.8776 80.1333 30.0619C80.0676 31.2444 79.5829 32.5608 79.0108 33.675C78.4318 34.8026 77.6628 35.9175 76.8643 36.6717C75.5921 37.8732 73.9752 37.7519 72.921 37.5681C72.5119 37.4967 72.0831 37.3946 71.7235 37.3089C71.6096 37.2818 71.5027 37.2564 71.4055 37.2341C70.9423 37.1277 70.6562 37.0811 70.4654 37.0811C69.2277 37.0811 67.7636 36.5067 66.5932 35.882C65.403 35.2468 64.1696 34.3728 63.4582 33.4835C62.5575 32.3577 62.2641 31.1359 62.1793 30.0069C62.1378 29.454 62.1451 28.9056 62.1595 28.4018C62.1637 28.252 62.1685 28.1082 62.1732 27.9681C62.1849 27.6152 62.1958 27.2859 62.1958 26.9441C62.1958 24.2403 64.1858 21.0089 67.6642 21.0089C67.7842 21.0089 68.0015 20.9973 68.3252 20.9801C68.4594 20.973 68.6118 20.9649 68.7832 20.9563C69.2282 20.9338 69.7563 20.9108 70.2909 20.9042C70.4626 20.5609 70.7653 20.2831 71.1582 20.1521C71.8792 19.9118 72.6536 20.2493 72.979 20.9135ZM71.9199 23.9812C72.237 24.3318 72.7145 24.5272 73.2192 24.4641C73.2434 24.4611 73.2674 24.4575 73.2912 24.4534C73.3747 24.4889 73.4578 24.5238 73.5401 24.558C73.9533 24.7294 74.3932 24.901 74.7952 25.0579C74.9895 25.1337 75.1749 25.206 75.3441 25.2732C75.916 25.5002 76.2863 25.6623 76.4744 25.773C76.9319 26.0421 77.1376 26.4039 77.22 27.0626C77.2934 27.6494 77.2496 28.2623 77.1948 29.0288C77.1757 29.2971 77.1552 29.5842 77.1379 29.8955C77.1056 30.4771 76.8272 31.3597 76.342 32.3046C75.8637 33.2362 75.2811 34.0404 74.8044 34.4906C74.6388 34.647 74.3286 34.7683 73.4365 34.6127C73.1254 34.5584 72.8292 34.4879 72.4951 34.4084C72.3627 34.3769 72.2244 34.344 72.0769 34.3102C71.616 34.2043 71.032 34.0811 70.4654 34.0811C69.9862 34.0811 69.0602 33.7981 68.0058 33.2354C66.9713 32.6833 66.1452 32.0399 65.8008 31.6095C65.4015 31.1102 65.228 30.5424 65.1709 29.7823C65.1415 29.3906 65.1445 28.9695 65.1583 28.4871C65.1617 28.3681 65.1658 28.2429 65.1701 28.1134C65.1824 27.7439 65.1958 27.3396 65.1958 26.9441C65.1958 25.3338 66.3548 24.0089 67.6642 24.0089C67.8705 24.0089 68.2178 23.9903 68.5868 23.9707C68.7017 23.9645 68.8188 23.9583 68.9343 23.9525C69.4639 23.9258 70.0645 23.9009 70.6323 23.9025C71.1801 23.904 71.6239 23.9308 71.9199 23.9812Z" fill="black"/>
<path fill-rule="evenodd" clip-rule="evenodd" d="M100.111 18.2078C100.94 18.2078 101.611 18.8793 101.611 19.7078C101.611 20.9275 101.719 22.2807 101.835 23.7441L101.84 23.8125C101.956 25.2757 102.078 26.8385 102.078 28.3448C102.078 29.6306 101.664 31.7557 100.889 33.5766C100.499 34.4945 99.9763 35.4347 99.2873 36.1686C98.5927 36.9084 97.6176 37.5481 96.3764 37.5481C94.7677 37.5481 92.5522 36.949 90.6165 36.0965C89.6285 35.6614 88.6557 35.1355 87.8204 34.5383C87.0029 33.9539 86.2235 33.2349 85.7367 32.383C84.0742 29.4736 84.1018 26.8355 84.1308 24.0742C84.1346 23.7105 84.1385 23.3447 84.1385 22.9758C84.1385 22.1474 84.81 21.4758 85.6385 21.4758C86.4669 21.4758 87.1385 22.1474 87.1385 22.9758C87.1385 23.371 87.1359 23.7471 87.1335 24.1069C87.1148 26.9124 87.1026 28.7267 88.3414 30.8946C88.5253 31.2164 88.9185 31.6355 89.5652 32.0979C90.194 32.5475 90.9768 32.9772 91.8256 33.351C93.5634 34.1163 95.346 34.5481 96.3764 34.5481C96.5109 34.5481 96.7489 34.4893 97.1001 34.1152C97.4569 33.7352 97.8126 33.1461 98.1287 32.4026C98.7675 30.9005 99.0782 29.1739 99.0782 28.3448C99.0782 26.9765 98.9669 25.5311 98.8495 24.0496C98.846 24.0061 98.8426 23.9627 98.8391 23.9191C98.7269 22.5047 98.6114 21.0483 98.6114 19.7078C98.6114 18.8793 99.2829 18.2078 100.111 18.2078Z" fill="black"/>
<path fill-rule="evenodd" clip-rule="evenodd" d="M113.303 16.8752C112.417 16.9087 111.751 17.1928 111.443 17.5004C109.892 19.0518 108.457 21.5678 108.159 23.6549C108.145 23.7515 108.128 23.8735 108.11 24.0163H108.615V32.0974C108.622 32.291 108.623 32.4546 108.622 32.5632C108.621 32.6015 108.62 32.646 108.618 32.688L108.618 32.6893C108.618 32.7026 108.615 32.7546 108.607 32.8153C108.605 32.8338 108.601 32.8688 108.592 32.9122L108.592 32.9143C108.587 32.9401 108.565 33.0564 108.51 33.194C108.489 33.2469 108.406 33.4524 108.217 33.6562C107.999 33.8903 107.404 34.3274 106.617 34.0491C106.079 33.8586 105.848 33.4393 105.807 33.365L105.805 33.3611C105.732 33.2291 105.696 33.1159 105.682 33.0706C105.652 32.9702 105.639 32.8887 105.635 32.8654C105.63 32.8301 105.627 32.8013 105.625 32.7848C105.621 32.7513 105.62 32.7238 105.619 32.7098C105.617 32.6796 105.616 32.652 105.616 32.6334C105.615 32.5933 105.615 32.5462 105.615 32.4948V32.1567C105.612 32.1057 105.61 32.0517 105.606 31.9955C105.591 31.7489 105.565 31.5014 105.527 31.3061C105.514 31.2396 105.503 31.1938 105.495 31.1651C105.264 30.8355 105.142 30.4759 105.069 30.2009C104.981 29.8697 104.928 29.5131 104.895 29.1667C104.829 28.4729 104.83 27.6781 104.859 26.922C104.917 25.4032 105.098 23.867 105.189 23.2306C105.598 20.3625 107.421 17.2796 109.322 15.379C110.351 14.3497 111.862 13.9276 113.189 13.8773C114.522 13.8269 116.033 14.1361 117.139 14.9963C118.414 15.9874 119.169 17.0172 119.782 18.0764C120.026 18.499 120.254 18.9387 120.473 19.36C120.517 19.4443 120.56 19.5278 120.603 19.6103C120.868 20.1184 121.139 20.623 121.464 21.1522C122.207 22.3592 122.682 24.1808 123.012 25.9521C123.354 27.7824 123.577 29.7834 123.725 31.4946C123.832 32.7391 123.901 33.8447 123.944 34.6383C123.994 34.7879 124.021 34.948 124.021 35.1144V35.1359C124.021 35.4026 124.021 35.6064 124.021 35.749C124.021 35.7566 124.021 35.7653 124.021 35.7747C124.02 35.8668 124.02 36.0364 124.008 36.1471C124.006 36.1667 124.001 36.2044 123.993 36.251L123.993 36.2533C123.988 36.281 123.966 36.406 123.906 36.5532C123.864 36.647 123.714 36.8917 123.595 37.0322C123.325 37.2527 122.543 37.49 122.071 37.4229C121.756 37.2836 121.356 36.9421 121.249 36.794C121.197 36.7062 121.127 36.558 121.104 36.4996C121.067 36.3953 121.049 36.3099 121.044 36.2851C121.037 36.248 121.032 36.2177 121.029 36.2002C121.024 36.1651 121.021 36.136 121.02 36.1213C121.015 36.0682 121.011 36.007 121.009 35.9668C121.004 35.8824 120.998 35.7577 120.99 35.6074L120.987 35.546C120.951 34.821 120.879 33.4128 120.736 31.7525C120.592 30.087 120.379 28.1951 120.063 26.5019C119.737 24.7496 119.335 23.4169 118.909 22.7245C118.527 22.1026 118.217 21.5224 117.944 20.9981C117.895 20.9043 117.847 20.8133 117.801 20.7246C117.583 20.3047 117.392 19.9368 117.185 19.5784C116.708 18.755 116.188 18.0569 115.298 17.3644C114.921 17.0713 114.183 16.8418 113.303 16.8752Z" fill="black"/>
<path fill-rule="evenodd" clip-rule="evenodd" d="M134.193 20.542C135.021 20.542 135.693 21.2136 135.693 22.042C135.693 24.5823 135.808 27.1328 135.925 29.7111L135.927 29.7618C136.043 32.3119 136.16 34.8908 136.16 37.4486C136.16 38.2771 135.488 38.9486 134.66 38.9486C133.831 38.9486 133.16 38.2771 133.16 37.4486C133.16 34.959 133.045 32.4372 132.928 29.8637L132.928 29.8471C132.811 27.2795 132.693 24.6615 132.693 22.042C132.693 21.2136 133.364 20.542 134.193 20.542Z" fill="black"/>
<path fill-rule="evenodd" clip-rule="evenodd" d="M135.724 6.65168C135.722 6.66448 135.719 6.67899 135.717 6.69532C135.697 6.8258 135.675 7.00067 135.647 7.2205L135.642 7.2602C135.59 7.67046 135.522 8.21043 135.436 8.66365C135.392 8.89181 135.334 9.15873 135.251 9.39831C135.211 9.51452 135.145 9.68461 135.039 9.85745C134.961 9.98392 134.708 10.3753 134.192 10.563C133.497 10.8152 132.902 10.5247 132.591 10.246C132.337 10.018 132.202 9.75467 132.14 9.62177C132.001 9.32584 131.902 8.96117 131.821 8.59498C131.71 8.09509 131.504 7.58819 131.234 6.96681C131.208 6.90719 131.182 6.84608 131.154 6.78362C130.917 6.23912 130.634 5.591 130.442 4.92078C130.286 4.37471 130.08 4.24016 129.995 4.19692C129.872 4.13437 129.619 4.07814 129.175 4.17864C128.243 4.38916 127.127 5.14718 126.494 5.93855C126.208 6.29607 125.838 6.6118 125.541 6.85356C125.377 6.98752 125.243 7.09309 125.117 7.19231C124.96 7.31582 124.816 7.42951 124.641 7.57594C124.363 7.80887 124.178 7.98892 124.067 8.1315C124.042 8.16289 124.025 8.18705 124.014 8.20426C123.942 9.69302 124.188 10.61 124.9 12.034C125.647 13.5274 126.529 14.4486 127.525 15.0157C128.534 15.5901 129.788 15.8735 131.392 15.8735H132.319L132.378 15.9915C132.868 15.8322 133.522 15.5437 134.276 15.1761C134.788 14.9264 135.288 14.67 135.78 14.4177C136.09 14.2587 136.397 14.1012 136.702 13.9481C137.08 13.7586 137.447 13.5793 137.775 13.4349C138.079 13.3005 138.438 13.1557 138.769 13.0821C141.206 12.5407 142.964 10.344 142.964 7.80271C142.964 6.46925 142.785 5.17472 142.327 4.26599C142.108 3.83245 141.849 3.53189 141.554 3.33647C141.27 3.14725 140.868 3 140.262 3C138.786 3 138.009 3.35395 137.458 3.84941C136.847 4.39855 136.349 5.25888 135.724 6.65168ZM135.735 6.58311L135.736 6.57889C135.741 6.5571 135.741 6.5612 135.735 6.58311ZM135.453 1.61788C136.683 0.512796 138.237 0 140.262 0C141.393 0 142.386 0.28705 143.215 0.837677C144.034 1.3821 144.608 2.12692 145.005 2.91552C145.779 4.45108 145.964 6.3079 145.964 7.80271C145.964 11.7304 143.248 15.16 139.42 16.0106C139.417 16.0116 139.379 16.0212 139.299 16.0507C139.218 16.0808 139.114 16.1232 138.986 16.1797C138.728 16.2935 138.413 16.4459 138.048 16.6291C137.791 16.7581 137.504 16.9055 137.201 17.0608C136.683 17.3263 136.12 17.6147 135.591 17.8727C134.749 18.2829 133.837 18.6953 133.063 18.919C132.688 19.0271 132.219 19.1303 131.751 19.1041C131.506 19.0904 131.175 19.0314 130.853 18.8645C129.11 18.8049 127.486 18.4455 126.041 17.623C124.436 16.7092 123.177 15.2961 122.217 13.3756C121.304 11.5508 120.904 10.1083 121.023 7.95294C121.063 7.23697 121.401 6.66992 121.704 6.2827C122.012 5.88865 122.39 5.54798 122.715 5.27571C122.894 5.12596 123.127 4.94116 123.329 4.78094C123.453 4.68311 123.564 4.59445 123.645 4.52852C123.931 4.29565 124.081 4.15184 124.151 4.06446C125.136 2.8335 126.812 1.63686 128.513 1.25244C129.385 1.05547 130.409 1.04169 131.355 1.52304C132.339 2.02368 132.995 2.93445 133.327 4.09662C133.361 4.2156 133.399 4.33424 133.441 4.45455C133.972 3.38791 134.593 2.39042 135.453 1.61788ZM132.416 8.41631L132.415 8.41786C132.414 8.42354 132.414 8.42264 132.416 8.41631Z" fill="black"/>
<path fill-rule="evenodd" clip-rule="evenodd" d="M151.934 2.80127C152.762 2.80127 153.434 3.47284 153.434 4.30127C153.434 11.2178 153.55 25.0611 153.667 35.4485C153.712 39.4444 153.757 42.924 153.795 45.2985C153.863 45.4699 153.901 45.6568 153.901 45.8525C153.901 47.5341 153.895 48.4904 153.876 48.7296L153.876 48.7308C153.874 48.7502 153.869 48.8184 153.855 48.8986L153.854 48.901C153.85 48.9255 153.825 49.069 153.754 49.2334C153.698 49.35 153.471 49.6657 153.277 49.8395C152.839 50.0673 151.879 50.0557 151.458 49.8267C151.275 49.6592 151.058 49.3579 151.003 49.2467C150.976 49.1812 150.938 49.072 150.926 49.0283C150.904 48.9478 150.894 48.8825 150.89 48.8589C150.882 48.8025 150.877 48.7541 150.875 48.7329C150.868 48.6448 150.863 48.5218 150.858 48.4017C150.849 48.139 150.839 47.7233 150.828 47.1818C150.784 45.0101 150.726 40.6755 150.667 35.4822C150.551 25.0939 150.434 11.236 150.434 4.30127C150.434 3.47284 151.105 2.80127 151.934 2.80127Z" fill="black"/>
<path fill-rule="evenodd" clip-rule="evenodd" d="M152.969 21.6422C154.198 20.8272 155.687 20.8237 157.212 21.5014C161.01 23.1896 161.837 26.8283 161.837 30.2124C161.837 30.8808 161.812 31.4662 161.665 32.0579C161.515 32.6578 161.264 33.174 160.948 33.742C160.853 33.9135 160.739 34.0597 160.667 34.1482C160.587 34.2473 160.499 34.3474 160.426 34.4298C160.425 34.4314 160.423 34.4331 160.422 34.4347C160.44 34.564 160.442 34.6978 160.425 34.8337C160.4 35.0363 160.335 35.2245 160.24 35.3914C161.949 36.0555 163.663 36.4157 165.006 36.4157H168.974C170.156 36.4157 171.487 35.8915 172.985 35.0472C173.718 34.6339 174.442 34.1732 175.177 33.7048L175.225 33.6743C175.93 33.225 176.656 32.7624 177.35 32.3767C177.677 32.195 178.067 31.9868 178.501 31.7547C179.932 30.9899 181.847 29.9664 183.598 28.7834C184.733 28.0167 185.716 27.2351 186.401 26.4835C187.118 25.6971 187.316 25.1528 187.316 24.8434C187.316 24.015 187.988 23.3434 188.816 23.3434C189.645 23.3434 190.316 24.015 190.316 24.8434C190.316 26.2818 189.503 27.5336 188.619 28.504C187.703 29.5093 186.497 30.4451 185.277 31.2692C183.38 32.5515 181.249 33.6894 179.819 34.4531C179.42 34.6658 179.076 34.8495 178.807 34.9992C178.192 35.3404 177.532 35.7615 176.793 36.2328L176.79 36.2345C176.065 36.6968 175.273 37.201 174.458 37.6606C172.859 38.5621 170.962 39.4157 168.974 39.4157H165.006C162.699 39.4157 159.884 38.6525 157.413 37.4172C154.963 36.1932 152.582 34.3708 151.422 32.0503C150.93 31.0667 150.656 29.8187 150.568 28.5917C150.478 27.3527 150.568 26.0103 150.902 24.8079C151.226 23.6381 151.841 22.3907 152.969 21.6422ZM157.228 33.8645C157.275 33.7138 157.332 33.5922 157.376 33.5081C157.468 33.329 157.576 33.1726 157.666 33.0534C157.819 32.848 158.005 32.6383 158.133 32.4948C158.149 32.4767 158.164 32.4597 158.178 32.4439C158.303 32.3022 158.343 32.2493 158.345 32.2496C158.606 31.7773 158.701 31.5419 158.753 31.3336C158.808 31.1119 158.837 30.8288 158.837 30.2124C158.837 27.172 158.106 25.1819 155.993 24.2429C155.157 23.8712 154.797 24.0296 154.628 24.1421C154.358 24.321 154.026 24.7665 153.793 25.6092C153.568 26.4192 153.49 27.4088 153.56 28.3754C153.63 29.354 153.844 30.1853 154.105 30.7087C154.665 31.8285 155.778 32.9249 157.228 33.8645Z" fill="black"/>
</svg>
