<?xml version="1.0" encoding="utf-8"?>
<!-- Generator: Adobe Illustrator 25.4.1, SVG Export Plug-In . SVG Version: 6.00 Build 0)  -->
<svg version="1.1" id="Logo" xmlns="http://www.w3.org/2000/svg" xmlns:xlink="http://www.w3.org/1999/xlink" x="0px" y="0px"
	 viewBox="0 0 1161.8 289.5" style="enable-background:new 0 0 1161.8 289.5;" xml:space="preserve">
<style type="text/css">
	.st0{fill:#1DE9B6;}
	.st1{fill:#FFFFFF;}
</style>
<g>
	<path class="st0" d="M189.8,144.7c21.2-17.7,38.4-37.2,51.4-58.2c17.2-27.9,25.9-57,25.9-86.5h-30c0,23.9-7.2,47.7-21.5,70.8
		c-12.2,19.7-29.6,38.7-50.6,55.4c-7.9-5.3-16-10.3-24.3-14.9c44.6-31.7,69-71.1,69-111.3h-30c0,31-22.2,63.7-60.8,89.9
		c-3.1,2.1-6.4,4.2-9.6,6.2c-6.4-2.7-12.8-5.2-19.3-7.4V0.1H60v79.8c-10-2.4-20.1-4.2-30-5.5V0.1H0v72.3l0,0v30
		c23.3,0,48,4.2,72.5,11.9c-24.6,9.8-50.1,15.3-72.5,15.3l0,0v30l0,0c22.4,0,47.8,5.6,72.5,15.3c-24.4,7.7-49.1,11.9-72.5,11.9v30
		l0,0v72.6h30v-74.3c9.9-1.2,20-3.1,30-5.5v79.8h30v-88.6c6.5-2.3,12.9-4.7,19.3-7.4c3.3,2,6.5,4,9.6,6.2
		c38.6,26.1,60.8,58.9,60.8,89.9h30c0-40.2-24.5-79.6-69-111.3c8.3-4.6,16.4-9.6,24.3-14.9c21,16.6,38.5,35.7,50.6,55.4
		c14.2,23.1,21.5,46.9,21.5,70.8h30c0-29.5-8.7-58.6-25.9-86.5C228.3,181.9,211,162.4,189.8,144.7z M77,144.7
		c11.6-4.2,23-9.3,34-15.1c9.4,4.5,18.6,9.6,27.6,15.1c-8.9,5.5-18.1,10.6-27.6,15.1C100,154,88.5,149,77,144.7z"/>
	<g>
		<path class="st1" d="M489.3,230.5l-39.7-44h-7v44h-38.9V55.3h38.9V150h5.4l38.7-41.6h47l-53.5,58.2l59.1,64h-50V230.5z"/>
		<path class="st1" d="M670.6,230.5h-38.9v-9.7c-9.9,8.9-22.6,13.4-38,13.4c-16.5,0-30.6-6-42.2-18.1s-17.4-27.6-17.4-46.6
			c0-18.8,5.8-34.3,17.4-46.5s25.7-18.3,42.2-18.3c15.4,0,28.1,4.5,38,13.4v-9.7h38.9V230.5z M622.8,192.2
			c5.9-5.9,8.9-13.5,8.9-22.8c0-9.1-3-16.6-8.9-22.6s-12.9-9-21.1-9c-8.6,0-15.7,3-21.2,8.9s-8.3,13.5-8.3,22.8
			c0,9.4,2.8,17,8.3,22.9c5.5,5.8,12.6,8.8,21.2,8.8C609.8,201,616.9,198.1,622.8,192.2z"/>
		<path class="st1" d="M780.4,107.6l-1.7,38.9h-7.1c-28.1,0-42.1,15.3-42.1,45.8v38.2h-38.9V108.3h38.9v23.4
			c10.1-16.7,24.1-25.1,42.1-25.1C774.9,106.6,777.8,106.9,780.4,107.6z"/>
		<path class="st1" d="M991.9,118.4c8.9,9.2,13.4,21.1,13.4,35.7v76.4h-38.7v-68.1c0-6.8-1.9-12.3-5.8-16.4
			c-3.9-4.1-8.8-6.2-14.6-6.2c-7.3,0-13.1,2.6-17.4,7.9c-4.3,5.3-6.4,12.9-6.4,23v59.9h-38.9v-68.2c0-6.8-1.9-12.3-5.8-16.4
			c-3.9-4.1-8.8-6.2-14.8-6.2c-7.3,0-13,2.6-17.2,7.9c-4.1,5.3-6.2,12.9-6.2,23v59.9h-38.9V108.3h38.9v11.2
			c8.9-9.9,20.9-14.8,36-14.8c18,0,31.3,6.9,39.9,20.7c10.5-13.8,25-20.7,43.3-20.7C971.9,104.7,983,109.3,991.9,118.4z"/>
		<path class="st1" d="M1161.8,230.5h-38.9v-9.7c-9.9,8.9-22.6,13.4-38,13.4c-16.5,0-30.6-6-42.2-18.1s-17.4-27.6-17.4-46.6
			c0-18.8,5.8-34.3,17.4-46.5s25.7-18.3,42.2-18.3c15.4,0,28.1,4.5,38,13.4v-9.7h38.9V230.5z M1114,192.2c5.9-5.9,8.9-13.5,8.9-22.8
			c0-9.1-3-16.6-8.9-22.6s-12.9-9-21.1-9c-8.6,0-15.7,3-21.2,8.9s-8.3,13.5-8.3,22.8c0,9.4,2.8,17,8.3,22.9
			c5.5,5.8,12.6,8.8,21.2,8.8C1101.1,201,1108.1,198.1,1114,192.2z"/>
	</g>
</g>
</svg>
