<svg width="747" height="774" viewBox="0 0 747 774" fill="none" xmlns="http://www.w3.org/2000/svg">
  <path
    d="M746.3 0C409.036 153.631 153.02 458.621 0 773.456M651.857 0C340.059
146.213 129.091 428.229 0 715.329M554.338 0C288.632 138.42 110.91 398.55 0
669.482M433.964 0C219.219 119.527 84.0663 331.776 0 563.432M319.953 0C160.985
96.2889 61.8008 252.75 0 431.056M227.79 0C116.304 73.784 44.8929 182.888 0
310.023M152.85 0C83.9817 53.5393 34.7176 125.675 0 209.803M85.6413 0C52.8254
25.5116 24.4607 55.2457 0 88.4876"
    stroke="#7731D2" />

</svg>