<svg width="747" height="774" viewBox="0 0 747 774" fill="none" xmlns="http://www.w3.org/2000/svg">
  <path
    d="M0.700012 774C337.964 620.369 593.98 315.379 747 0.544006M95.143 774C406.941 627.787 617.909 345.771 747 58.671M192.662 774C458.368 635.58 636.09 375.45 747 104.518M313.036 774C527.781 654.473 662.934 442.224 747 210.568M427.047 774C586.015 677.711 685.199 521.25 747 342.944M519.21 774C630.696 700.216 702.107 591.112 747 463.977M594.15 774C663.018 720.461 712.282 648.325 747 564.197M661.359 774C694.175 748.488 722.539 718.754 747 685.512"
    stroke="#7731D2" />
</svg>