<svg width="121" height="18" viewBox="0 0 121 18" fill="none" xmlns="http://www.w3.org/2000/svg">
<path d="M14.9666 2.8514H13.5939C13.2752 2.8514 13.0301 2.60627 13.0301 2.28759V0.963842C13.0301 0.645162 12.7849 0.400024 12.4662 0.400024H3.59224C3.27356 0.400024 3.02842 0.645162 3.02842 0.963842V2.28759C3.02842 2.60627 2.78328 2.8514 2.46461 2.8514H1.09183C0.773153 2.8514 0.528015 3.09654 0.528015 3.41522V14.5445C0.528015 14.8632 0.773153 15.1083 1.09183 15.1083H2.46461C2.78328 15.1083 3.02842 15.3534 3.02842 15.6721V16.9959C3.02842 17.3145 3.27356 17.5597 3.59224 17.5597H12.4662C12.7849 17.5597 13.0301 17.3145 13.0301 16.9959V15.6721C13.0301 15.3534 13.2752 15.1083 13.5939 15.1083H14.9666C15.2853 15.1083 15.5305 14.8632 15.5305 14.5445V12.6569H13.0301V14.5445C13.0301 14.8632 12.7849 15.1083 12.4662 15.1083H3.59224C3.27356 15.1083 3.02842 14.8632 3.02842 14.5445V3.41522C3.02842 3.09654 3.27356 2.8514 3.59224 2.8514H12.4662C12.7849 2.8514 13.0301 3.09654 13.0301 3.41522V5.30278H15.5305V3.41522C15.5305 3.09654 15.2853 2.8514 14.9666 2.8514Z" fill="white"/>
<path d="M21.0918 17.5597H29.9658C30.2845 17.5597 30.5296 17.3145 30.5296 16.9959V15.6721C30.5296 15.3534 30.7748 15.1083 31.0935 15.1083H32.4662C32.7849 15.1083 33.0301 14.8632 33.0301 14.5445V3.41522C33.0301 3.09654 32.7849 2.8514 32.4662 2.8514H31.0935C30.7748 2.8514 30.5296 2.60627 30.5296 2.28759V0.963842C30.5296 0.645162 30.2845 0.400024 29.9658 0.400024H21.0918C20.7732 0.400024 20.528 0.645162 20.528 0.963842V2.28759C20.528 2.60627 20.2829 2.8514 19.9642 2.8514H18.5914C18.2727 2.8514 18.0276 3.09654 18.0276 3.41522V14.5445C18.0276 14.8632 18.2727 15.1083 18.5914 15.1083H19.9642C20.2829 15.1083 20.528 15.3534 20.528 15.6721V16.9959C20.528 17.3145 20.7732 17.5597 21.0918 17.5597ZM20.528 14.5445V3.41522C20.528 3.09654 20.7732 2.8514 21.0918 2.8514H29.9658C30.2845 2.8514 30.5296 3.09654 30.5296 3.41522V14.5445C30.5296 14.8632 30.2845 15.1083 29.9658 15.1083H21.0918C20.7732 15.1083 20.528 14.8632 20.528 14.5445Z" fill="white"/>
<path d="M36.091 15.1083H37.4638C37.7825 15.1083 38.0276 15.3534 38.0276 15.6721V16.9959C38.0276 17.3145 38.2727 17.5597 38.5914 17.5597H47.4654C47.7841 17.5597 48.0292 17.3145 48.0292 16.9959V15.6721C48.0292 15.3534 48.2744 15.1083 48.5931 15.1083H49.9658C50.2845 15.1083 50.5296 14.8632 50.5296 14.5445V0.400024H48.0292V14.5445C48.0292 14.8632 47.7841 15.1083 47.4654 15.1083H38.5914C38.2727 15.1083 38.0276 14.8632 38.0276 14.5445V0.400024H35.5272V14.5445C35.5272 14.8632 35.7723 15.1083 36.091 15.1083Z" fill="white"/>
<path d="M53.5906 2.8514H54.9634C55.2821 2.8514 55.5272 3.09654 55.5272 3.41522V4.73897C55.5272 5.05765 55.7723 5.30278 56.091 5.30278H57.4638C57.7825 5.30278 58.0276 5.54792 58.0276 5.8666V7.19035C58.0276 7.50903 58.2727 7.75416 58.5914 7.75416H59.9642C60.2829 7.75416 60.528 7.9993 60.528 8.31798V9.64173C60.528 9.96041 60.7732 10.2055 61.0918 10.2055H62.4646C62.7833 10.2055 63.0284 10.4507 63.0284 10.7694V12.0931C63.0284 12.4118 63.2736 12.6569 63.5922 12.6569H64.965C65.2837 12.6569 65.5288 12.9021 65.5288 13.2207V17.5597H68.0292V13.2207C68.0292 12.9021 67.7841 12.6569 67.4654 12.6569H66.0926C65.774 12.6569 65.5288 12.4118 65.5288 12.0931V10.7694C65.5288 10.4507 65.2837 10.2055 64.965 10.2055H63.5922C63.2736 10.2055 63.0284 9.96041 63.0284 9.64173V8.31798C63.0284 7.9993 62.7833 7.75416 62.4646 7.75416H61.0918C60.7732 7.75416 60.528 7.50903 60.528 7.19035V5.8666C60.528 5.54792 60.2829 5.30278 59.9642 5.30278H58.5914C58.2727 5.30278 58.0276 5.05765 58.0276 4.73897V3.41522C58.0276 3.09654 57.7825 2.8514 57.4638 2.8514H56.091C55.7723 2.8514 55.5272 2.60627 55.5272 2.28759V0.963842C55.5272 0.645162 55.2821 0.400024 54.9634 0.400024H53.5906C53.2719 0.400024 53.0268 0.645162 53.0268 0.963842V2.28759C53.0268 2.60627 53.2719 2.8514 53.5906 2.8514ZM53.0268 17.5597H55.5272V5.30278H53.0268V17.5597ZM65.5288 10.2055H68.0292V0.400024H65.5288V10.2055Z" fill="white"/>
<path d="M84.965 2.8514H83.5922C83.2736 2.8514 83.0284 2.60627 83.0284 2.28759V0.963842C83.0284 0.645162 82.7833 0.400024 82.4646 0.400024H73.5906C73.2719 0.400024 73.0268 0.645162 73.0268 0.963842V2.28759C73.0268 2.60627 72.7817 2.8514 72.463 2.8514H71.0902C70.7715 2.8514 70.5264 3.09654 70.5264 3.41522V14.5445C70.5264 14.8632 70.7715 15.1083 71.0902 15.1083H72.463C72.7817 15.1083 73.0268 15.3534 73.0268 15.6721V16.9959C73.0268 17.3145 73.2719 17.5597 73.5906 17.5597H82.4646C82.7833 17.5597 83.0284 17.3145 83.0284 16.9959V15.6721C83.0284 15.3534 83.2736 15.1083 83.5922 15.1083H84.965C85.2837 15.1083 85.5288 14.8632 85.5288 14.5445V12.6569H83.0284V14.5445C83.0284 14.8632 82.7833 15.1083 82.4646 15.1083H73.5906C73.2719 15.1083 73.0268 14.8632 73.0268 14.5445V3.41522C73.0268 3.09654 73.2719 2.8514 73.5906 2.8514H82.4646C82.7833 2.8514 83.0284 3.09654 83.0284 3.41522V5.30278H85.5288V3.41522C85.5288 3.09654 85.2837 2.8514 84.965 2.8514Z" fill="white"/>
<path d="M88.026 17.5597H93.7132C94.0319 17.5597 94.277 17.3145 94.277 16.9959V15.6721C94.277 15.3534 94.5221 15.1083 94.8408 15.1083H96.2136C96.5323 15.1083 96.7774 15.3534 96.7774 15.6721V16.9959C96.7774 17.3145 97.0225 17.5597 97.3412 17.5597H103.028V15.1083H97.3412C97.0225 15.1083 96.7774 14.8632 96.7774 14.5445V3.41522C96.7774 3.09654 97.0225 2.8514 97.3412 2.8514H103.028V0.400024H97.3412C97.0225 0.400024 96.7774 0.645162 96.7774 0.963842V2.28759C96.7774 2.60627 96.5323 2.8514 96.2136 2.8514H94.8408C94.5221 2.8514 94.277 2.60627 94.277 2.28759V0.963842C94.277 0.645162 94.0319 0.400024 93.7132 0.400024H88.026V2.8514H93.7132C94.0319 2.8514 94.277 3.09654 94.277 3.41522V14.5445C94.277 14.8632 94.0319 15.1083 93.7132 15.1083H88.026V17.5597Z" fill="white"/>
<path d="M105.526 0.400024V14.5445C105.526 14.8632 105.771 15.1083 106.089 15.1083H107.462C107.781 15.1083 108.026 15.3534 108.026 15.6721V16.9959C108.026 17.3145 108.271 17.5597 108.59 17.5597H117.464C117.782 17.5597 118.028 17.3145 118.028 16.9959V15.6721C118.028 15.3534 118.273 15.1083 118.591 15.1083H119.964C120.283 15.1083 120.528 14.8632 120.528 14.5445V12.6569H118.028V14.5445C118.028 14.8632 117.782 15.1083 117.464 15.1083H108.59C108.271 15.1083 108.026 14.8632 108.026 14.5445V0.400024H105.526Z" fill="white"/>
</svg>
