<svg width="180" height="36" viewBox="0 0 180 36" fill="none" xmlns="http://www.w3.org/2000/svg">
<path d="M50.1923 33.5218C50.008 33.5218 49.8514 33.4553 49.7224 33.3224C49.5934 33.1896 49.5289 33.0282 49.5289 32.8383V14.2997C49.5289 14.0908 49.5934 13.92 49.7224 13.7871C49.8514 13.6542 50.008 13.5878 50.1923 13.5878H62.3541C62.5568 13.5878 62.7226 13.6542 62.8516 13.7871C62.9806 13.92 63.0451 14.0908 63.0451 14.2997V16.1792C63.0451 16.369 62.9806 16.5304 62.8516 16.6633C62.7226 16.7962 62.5568 16.8626 62.3541 16.8626H53.2604V21.9031H61.746C61.9487 21.9031 62.1145 21.9695 62.2435 22.1024C62.3725 22.2163 62.437 22.3777 62.437 22.5865V24.3521C62.437 24.561 62.3725 24.7318 62.2435 24.8647C62.1145 24.9786 61.9487 25.0356 61.746 25.0356H53.2604V30.2469H62.5752C62.7779 30.2469 62.9438 30.3134 63.0727 30.4462C63.2017 30.5791 63.2662 30.75 63.2662 30.9588V32.8383C63.2662 33.0282 63.2017 33.1896 63.0727 33.3224C62.9438 33.4553 62.7779 33.5218 62.5752 33.5218H50.1923Z" fill="white"/>
<path d="M67.0826 33.5218C66.8983 33.5218 66.7417 33.4553 66.6127 33.3224C66.4837 33.1896 66.4192 33.0282 66.4192 32.8383V13.9864C66.4192 13.7966 66.4837 13.6352 66.6127 13.5023C66.7417 13.3694 66.8983 13.303 67.0826 13.303H69.3767C69.561 13.303 69.7176 13.3694 69.8466 13.5023C69.9756 13.6352 70.0401 13.7966 70.0401 13.9864V32.8383C70.0401 33.0282 69.9756 33.1896 69.8466 33.3224C69.7176 33.4553 69.561 33.5218 69.3767 33.5218H67.0826Z" fill="white"/>
<path d="M79.898 33.8066C77.8526 33.8066 76.231 33.199 75.0333 31.984C73.8355 30.769 73.1906 29.0414 73.0984 26.8012C73.08 26.6113 73.0708 26.374 73.0708 26.0892C73.0708 25.7855 73.08 25.5482 73.0984 25.3773C73.1722 23.9534 73.4854 22.7194 74.0382 21.6753C74.6095 20.6311 75.3926 19.8337 76.3877 19.2832C77.3827 18.7136 78.5528 18.4289 79.898 18.4289C81.3906 18.4289 82.6436 18.7516 83.6571 19.3971C84.6706 20.0236 85.4353 20.9064 85.9513 22.0455C86.4672 23.1656 86.7252 24.466 86.7252 25.9469V26.5449C86.7252 26.7347 86.6607 26.8961 86.5317 27.029C86.4027 27.1619 86.2369 27.2283 86.0342 27.2283H76.8575C76.8575 27.2283 76.8575 27.2568 76.8575 27.3138C76.8575 27.3707 76.8575 27.4182 76.8575 27.4561C76.876 28.1206 76.9958 28.7376 77.2169 29.3072C77.4564 29.8577 77.7973 30.3039 78.2396 30.6456C78.7002 30.9873 79.2438 31.1582 79.8704 31.1582C80.3863 31.1582 80.8193 31.0822 81.1695 30.9304C81.5196 30.7595 81.8052 30.5696 82.0263 30.3608C82.2474 30.152 82.4041 29.9811 82.4962 29.8482C82.662 29.6204 82.791 29.4875 82.8832 29.4495C82.9937 29.3926 83.1504 29.3641 83.3531 29.3641H85.7301C85.9144 29.3641 86.0618 29.4211 86.1724 29.535C86.3014 29.6489 86.3566 29.7913 86.3382 29.9621C86.3198 30.2659 86.1632 30.6361 85.8683 31.0727C85.5919 31.5094 85.1865 31.9366 84.6522 32.3542C84.1178 32.7719 83.4452 33.1231 82.6344 33.4079C81.842 33.6737 80.9299 33.8066 79.898 33.8066ZM76.8575 24.8362H82.9661V24.7508C82.9661 24.0104 82.8463 23.3649 82.6068 22.8144C82.3672 22.2638 82.0171 21.8272 81.5564 21.5044C81.0958 21.1817 80.5429 21.0203 79.898 21.0203C79.2531 21.0203 78.7002 21.1817 78.2396 21.5044C77.7789 21.8272 77.4288 22.2638 77.1892 22.8144C76.9681 23.3649 76.8575 24.0104 76.8575 24.7508V24.8362Z" fill="white"/>
<path d="M90.3225 33.5218C90.1383 33.5218 89.9816 33.4553 89.8527 33.3224C89.7237 33.1896 89.6592 33.0282 89.6592 32.8383V19.3971C89.6592 19.2072 89.7237 19.0459 89.8527 18.913C89.9816 18.7801 90.1383 18.7136 90.3225 18.7136H92.4785C92.6628 18.7136 92.8194 18.7801 92.9484 18.913C93.0774 19.0459 93.1419 19.2072 93.1419 19.3971V20.3653C93.5288 19.8337 94.0448 19.3876 94.6897 19.0269C95.3531 18.6472 96.1362 18.4479 97.0392 18.4289C99.1398 18.3909 100.605 19.2357 101.434 20.9633C101.858 20.204 102.466 19.5964 103.258 19.1408C104.069 18.6662 104.963 18.4289 105.939 18.4289C106.898 18.4289 107.764 18.6567 108.538 19.1123C109.33 19.568 109.947 20.2609 110.39 21.1912C110.85 22.1024 111.081 23.2605 111.081 24.6654V32.8383C111.081 33.0282 111.016 33.1896 110.887 33.3224C110.758 33.4553 110.601 33.5218 110.417 33.5218H108.151C107.966 33.5218 107.81 33.4553 107.681 33.3224C107.552 33.1896 107.487 33.0282 107.487 32.8383V24.8932C107.487 24.0389 107.367 23.3649 107.128 22.8713C106.888 22.3587 106.566 21.998 106.161 21.7892C105.755 21.5803 105.304 21.4759 104.806 21.4759C104.401 21.4759 103.995 21.5803 103.59 21.7892C103.185 21.998 102.853 22.3587 102.595 22.8713C102.337 23.3649 102.208 24.0389 102.208 24.8932V32.8383C102.208 33.0282 102.143 33.1896 102.014 33.3224C101.885 33.4553 101.729 33.5218 101.545 33.5218H99.278C99.0753 33.5218 98.9095 33.4553 98.7805 33.3224C98.67 33.1896 98.6147 33.0282 98.6147 32.8383V24.8932C98.6147 24.0389 98.4857 23.3649 98.2277 22.8713C97.9697 22.3587 97.638 21.998 97.2327 21.7892C96.8273 21.5803 96.3942 21.4759 95.9336 21.4759C95.5097 21.4759 95.0951 21.5898 94.6897 21.8177C94.2843 22.0265 93.9527 22.3777 93.6947 22.8713C93.4367 23.3649 93.3077 24.0389 93.3077 24.8932V32.8383C93.3077 33.0282 93.2432 33.1896 93.1142 33.3224C92.9852 33.4553 92.8286 33.5218 92.6443 33.5218H90.3225Z" fill="white"/>
<path d="M120.792 33.8066C118.746 33.8066 117.125 33.199 115.927 31.984C114.729 30.769 114.084 29.0414 113.992 26.8012C113.974 26.6113 113.965 26.374 113.965 26.0892C113.965 25.7855 113.974 25.5482 113.992 25.3773C114.066 23.9534 114.379 22.7194 114.932 21.6753C115.503 20.6311 116.286 19.8337 117.281 19.2832C118.277 18.7136 119.447 18.4289 120.792 18.4289C122.284 18.4289 123.537 18.7516 124.551 19.3971C125.564 20.0236 126.329 20.9064 126.845 22.0455C127.361 23.1656 127.619 24.466 127.619 25.9469V26.5449C127.619 26.7347 127.555 26.8961 127.426 27.029C127.297 27.1619 127.131 27.2283 126.928 27.2283H117.751C117.751 27.2283 117.751 27.2568 117.751 27.3138C117.751 27.3707 117.751 27.4182 117.751 27.4561C117.77 28.1206 117.89 28.7376 118.111 29.3072C118.35 29.8577 118.691 30.3039 119.133 30.6456C119.594 30.9873 120.138 31.1582 120.764 31.1582C121.28 31.1582 121.713 31.0822 122.063 30.9304C122.413 30.7595 122.699 30.5696 122.92 30.3608C123.141 30.152 123.298 29.9811 123.39 29.8482C123.556 29.6204 123.685 29.4875 123.777 29.4495C123.888 29.3926 124.044 29.3641 124.247 29.3641H126.624C126.808 29.3641 126.956 29.4211 127.066 29.535C127.195 29.6489 127.25 29.7913 127.232 29.9621C127.214 30.2659 127.057 30.6361 126.762 31.0727C126.486 31.5094 126.08 31.9366 125.546 32.3542C125.012 32.7719 124.339 33.1231 123.528 33.4079C122.736 33.6737 121.824 33.8066 120.792 33.8066ZM117.751 24.8362H123.86V24.7508C123.86 24.0104 123.74 23.3649 123.501 22.8144C123.261 22.2638 122.911 21.8272 122.45 21.5044C121.99 21.1817 121.437 21.0203 120.792 21.0203C120.147 21.0203 119.594 21.1817 119.133 21.5044C118.673 21.8272 118.323 22.2638 118.083 22.8144C117.862 23.3649 117.751 24.0104 117.751 24.7508V24.8362Z" fill="white"/>
<path d="M131.216 33.5218C131.032 33.5218 130.875 33.4553 130.746 33.3224C130.617 33.1896 130.553 33.0282 130.553 32.8383V19.3971C130.553 19.2072 130.617 19.0459 130.746 18.913C130.875 18.7801 131.032 18.7136 131.216 18.7136H133.483C133.667 18.7136 133.824 18.7801 133.953 18.913C134.082 19.0459 134.146 19.2072 134.146 19.3971V20.5647C134.625 19.9571 135.233 19.4541 135.971 19.0554C136.726 18.6377 137.657 18.4289 138.762 18.4289C139.886 18.4289 140.863 18.6947 141.692 19.2262C142.521 19.7388 143.157 20.4697 143.599 21.419C144.06 22.3682 144.29 23.5073 144.29 24.8362V32.8383C144.29 33.0282 144.226 33.1896 144.097 33.3224C143.968 33.4553 143.811 33.5218 143.627 33.5218H141.195C141.01 33.5218 140.854 33.4553 140.725 33.3224C140.596 33.1896 140.531 33.0282 140.531 32.8383V25.0071C140.531 23.906 140.264 23.0422 139.73 22.4157C139.214 21.7892 138.458 21.4759 137.463 21.4759C136.505 21.4759 135.74 21.7892 135.169 22.4157C134.598 23.0422 134.312 23.906 134.312 25.0071V32.8383C134.312 33.0282 134.248 33.1896 134.119 33.3224C133.99 33.4553 133.833 33.5218 133.649 33.5218H131.216Z" fill="white"/>
<path d="M154.135 33.5218C153.029 33.5218 152.099 33.3224 151.343 32.9238C150.588 32.5251 150.026 31.9366 149.657 31.1582C149.289 30.3608 149.104 29.3736 149.104 28.1965V21.7322H146.921C146.736 21.7322 146.58 21.6658 146.451 21.5329C146.322 21.4 146.257 21.2386 146.257 21.0488V19.3971C146.257 19.2072 146.322 19.0459 146.451 18.913C146.58 18.7801 146.736 18.7136 146.921 18.7136H149.104V13.9864C149.104 13.7966 149.16 13.6352 149.27 13.5023C149.399 13.3694 149.565 13.303 149.768 13.303H152.007C152.191 13.303 152.347 13.3694 152.476 13.5023C152.605 13.6352 152.67 13.7966 152.67 13.9864V18.7136H156.125C156.309 18.7136 156.466 18.7801 156.595 18.913C156.724 19.0459 156.788 19.2072 156.788 19.3971V21.0488C156.788 21.2386 156.724 21.4 156.595 21.5329C156.466 21.6658 156.309 21.7322 156.125 21.7322H152.67V27.9118C152.67 28.6902 152.799 29.2977 153.057 29.7343C153.333 30.171 153.803 30.3893 154.467 30.3893H156.374C156.558 30.3893 156.715 30.4557 156.844 30.5886C156.973 30.7215 157.037 30.8829 157.037 31.0727V32.8383C157.037 33.0282 156.973 33.1896 156.844 33.3224C156.715 33.4553 156.558 33.5218 156.374 33.5218H154.135Z" fill="white"/>
<path d="M160.817 33.8066C160.637 33.8066 160.484 33.7407 160.358 33.6089C160.231 33.4771 160.168 33.317 160.168 33.1288V14.7433C160.168 14.5362 160.231 14.3668 160.358 14.235C160.484 14.1032 160.637 14.0373 160.817 14.0373H172.553C172.752 14.0373 172.914 14.1032 173.04 14.235C173.166 14.3668 173.229 14.5362 173.229 14.7433V16.7202C173.229 16.9273 173.166 17.0968 173.04 17.2286C172.914 17.3416 172.752 17.398 172.553 17.398H163.873V22.764H172.013C172.211 22.764 172.373 22.8299 172.499 22.9617C172.626 23.0935 172.689 23.2629 172.689 23.47V25.447C172.689 25.6352 172.626 25.7953 172.499 25.9271C172.373 26.0589 172.211 26.1248 172.013 26.1248H163.873V33.1288C163.873 33.317 163.81 33.4771 163.684 33.6089C163.558 33.7407 163.395 33.8066 163.197 33.8066H160.817Z" fill="#8FD8E7"/>
<path d="M176.971 33.8066C176.791 33.8066 176.638 33.7407 176.512 33.6089C176.385 33.4771 176.322 33.317 176.322 33.1288V19.7986C176.322 19.6103 176.385 19.4503 176.512 19.3185C176.638 19.1867 176.791 19.1208 176.971 19.1208H179.216C179.414 19.1208 179.567 19.1867 179.675 19.3185C179.802 19.4503 179.865 19.6103 179.865 19.7986V33.1288C179.865 33.317 179.802 33.4771 179.675 33.6089C179.567 33.7407 179.414 33.8066 179.216 33.8066H176.971ZM176.863 16.692C176.665 16.692 176.503 16.6355 176.376 16.5225C176.268 16.3908 176.214 16.2213 176.214 16.0142V13.9808C176.214 13.7925 176.268 13.6325 176.376 13.5007C176.503 13.3689 176.665 13.303 176.863 13.303H179.324C179.522 13.303 179.685 13.3689 179.811 13.5007C179.937 13.6325 180 13.7925 180 13.9808V16.0142C180 16.2213 179.937 16.3908 179.811 16.5225C179.685 16.6355 179.522 16.692 179.324 16.692H176.863Z" fill="#8FD8E7"/>
<path d="M15.8837 26.9634C10.1964 29.4708 3.52563 26.9547 0.984193 21.3434C-1.55724 15.7321 0.992999 9.15054 6.68024 6.64306C12.3676 4.13559 19.0383 6.65175 21.5797 12.263C24.1211 17.8743 21.5709 24.4559 15.8837 26.9634Z" fill="white"/>
<path d="M36.3709 15.518C32.4335 17.2539 27.8154 15.512 26.0559 11.6272C24.2964 7.74251 26.062 3.18606 29.9993 1.45009C33.9367 -0.28585 38.5549 1.45609 40.3143 5.34082C42.0738 9.22561 40.3082 13.7821 36.3709 15.518Z" fill="white"/>
<path d="M33.6102 34.6807C30.4384 36.079 26.7182 34.6758 25.3009 31.5464C23.8835 28.4171 25.3057 24.7466 28.4775 23.3482C31.6492 21.9498 35.3694 23.353 36.7868 26.4824C38.2042 29.6118 36.7819 33.2822 33.6102 34.6807Z" fill="white"/>
<path d="M21.5797 12.2628C24.1211 17.8741 21.5709 24.4557 15.8836 26.9632C15.1418 27.2903 14.3833 27.5318 13.6194 27.6922C12.5316 26.607 11.6198 25.3137 10.9514 23.8379C8.11195 17.5688 10.6904 10.2671 16.7059 7.04516C18.7917 8.17176 20.5347 9.95567 21.5797 12.2628Z" fill="#6ACDE2"/>
<path d="M25.8797 5.7627C29.8318 6.62542 33.3332 9.25985 35.1114 13.186C35.4829 14.0063 35.7617 14.8442 35.9522 15.6884C32.1115 17.1283 27.7533 15.3749 26.0559 11.6271C25.1809 9.69524 25.1777 7.59729 25.8797 5.7627Z" fill="#6ACDE2"/>
<path d="M34.9618 24.1573C33.6544 26.8502 31.4089 29.117 28.4295 30.4306C27.3842 30.8914 26.3106 31.2076 25.2317 31.3879C23.9318 28.294 25.3591 24.7229 28.4775 23.3481C30.6958 22.37 33.1824 22.7624 34.9618 24.1573Z" fill="#6ACDE2"/>
</svg>
